<?xml version="1.0" encoding="UTF-8"?>
<svg version="1.1" viewBox="0 0 175 76.963" width="175px" height="76.963px" xml:space="preserve" xmlns="http://www.w3.org/2000/svg" xmlns:xlink="http://www.w3.org/1999/xlink">
    <defs>
        <clipPath id="a">
            <path d="M 0,113.386 H 255.118 V 0 H 0 Z"/>
        </clipPath>
    </defs>
  <g transform="matrix(1.3333 0 0 -1.3333 -100.67 106.12)">
        <g transform="matrix(1.2606 0 0 1.2606 -19.673 -20.739)">
            <g clip-path="url(#a)">
              <g transform="translate(124.73 77.743)">
                <path d="m0 0c0-0.457 0.21-0.811 0.313-1.251-0.334 0.177-0.727 0.321-1.095 0.469-0.431 0.174-0.757 0.327-1.201 0.519-2.23 0.961-4.429 1.476-4.429-2.083-1.416 0.749-3.913 1.135-5.128-0.033-2.209-2.127 0.537-5.577 0.906-7.161 1.758 0 0.839-0.722 2.032-0.469-0.059 0.72-0.306 1.009-0.53 1.658-0.402 1.164-0.991 3.972 1.156 3.972h1.721c0.22-0.459 0.572-2.18 0.625-2.815 0.924 0.077 0.394 0.469 1.72 0.469 0 2.687-0.912 4.654 2.723 3.818 2.148-0.493 0.923-0.156 1.812-3.974 0.851 0.449 0.645 0.333 2.029 0.13 5e-3 1.278 0.318 2.039 0.318 3.467 1.54 0.359 4.222 1.663 4.222-1.095 0-1.04-0.156-1.354-0.156-2.346 0.941 0 1.17-0.257 1.72-0.626 0.041 0.502 0.208 1.107 0.301 1.577 0.307 1.563-0.166 1.395 2.045 1.395 3.124 0 0.657-5.244 0.625-5.63 0.878 0.073 0.859 0.469 2.033 0.469 0.177 0.759 2.645 4.691 1.446 6.607-0.487 0.78-0.879 1.027-2.071 1.216-1.238 0.196-2.613-0.108-3.597-0.629 0 3.691-2.216 2.982-4.316 2.127l-2.409-1.032c0.176 0.755 0.313 0.297 0.313 1.407 0 2.171-3.128 2.386-3.128-0.156" fill="#7d6f43" fill-rule="evenodd"/>
              </g>
              <g transform="translate(118.31 44.119)">
                <path d="m0 0c0-1.309 0.062-3.223 0.403-4.444 0.146-0.523 0.259-0.515 0.379-1.03h-2.503v-4.847h1.564c0.024 1.036 0.529 2.033 1.564 2.033h6.569c0.366 0 0.806-0.431 1.008-0.712 0.341-0.472 0.399-0.571 0.399-1.321h1.564v4.847h-2.033c0 1.963 0.282 3.067-0.44 3.939-0.241 0.29-0.498 0.352-0.498 0.753v5.005h0.625v3.753c-5.57 0-5.217 0.509-6.383-1.28-1.178-1.809-2.218-4.348-2.218-6.696m5.63-2.658c0-0.724 0.938-1.697 0.938-1.877 0-1.182-4.535-1.713-4.535 2.972 0 1.099 0.521 2.314 0.839 3.226 0.204 0.583 0.395 0.87 0.691 1.343 0.363 0.579 0.649 0.735 0.972 1.217 2.27 0 1.72 0.784 1.72-5.161 0-0.759-0.625-1.181-0.625-1.72" fill="#7d6f43" fill-rule="evenodd"/>
              </g>
              <g transform="translate(169.77 51.626)">
                <path d="m0 0v-2.972c0.322-0.17 0.371-0.216 0.782-0.312v-10.947c-0.011-2.074 1e-3 -1.564 2.19-1.564 0.219 0.944 0.938 2.949 0.938 3.753h-0.782c0.069 0.297 3.08 4.897 3.44 5.161v-8.914h2.19c0.027 1.224 0.915 2.694 0.938 3.753-0.633 0-0.938-0.087-0.938 0.469 0 0.934-0.085 7.591 0.052 7.925 0.214 0.52 0.091 0.173 1.043 0.676v3.09c-0.221 0.665-1.094 0.351-4.066 0.351v-3.441c0.322-0.17 0.37-0.216 0.781-0.312l-0.844-1.189c-0.592-0.813-2.251-3.406-2.596-3.66v4.693l0.935 0.475 3e-3 3.434c-2.294 0-4.066 0.357-4.066-0.469" fill="#7d6f43" fill-rule="evenodd"/>
              </g>
              <g transform="translate(130.2 51.626)">
                <path d="m0 0v-2.972c0.322-0.17 0.371-0.216 0.782-0.312v-10.947c-0.011-2.074 1e-3 -1.564 2.19-1.564 0.219 0.944 0.938 2.949 0.938 3.753h-0.782c0.07 0.303 2.888 4.525 3.44 5.161v-8.914h2.19c0.013 0.571 0.303 1.439 0.447 1.899 0.198 0.634 0.474 1.101 0.491 1.854-0.633 0-0.938-0.087-0.938 0.469 0 0.934-0.086 7.591 0.052 7.925 0.214 0.52 0.091 0.173 1.043 0.676 0 4.324 0.917 3.441-4.066 3.441v-3.441c0.322-0.17 0.37-0.216 0.781-0.312l-3.44-5.005v4.849l0.935 0.475 3e-3 3.434c-2.294 0-4.066 0.357-4.066-0.469" fill="#7d6f43" fill-rule="evenodd"/>
              </g>
              <g transform="translate(75.933 48.185)">
                <path d="m0 0v-4.535c0-2.155-0.994-3.642 0.03-5.444 2.319-4.084 9.666-2.469 9.666 1.065 0 1.987-1.326 3.284-1.877 3.284-0.844 0-1.175-0.338-1.72-0.626 0.334-1.247 0.939-0.423 0.939-2.814 0-1.874-5.474-3.681-5.474 4.378 0 2.491-0.48 7.976 2.189 7.976 3.351 0 1.564-1.261 1.564-5.317 0-1.649 2.19-1.576 2.19-0.156 0 1.701-2.028 0.144 0.418 4.742 1.441 2.71 2.086 3.869-0.21 4.849-2.289 0.977-5.852 0.684-7.343-1.518-1.189-1.756-0.372-3.514-0.372-5.884" fill="#7d6f43" fill-rule="evenodd"/>
              </g>
              <g transform="translate(140.99 48.81)">
                <path d="m0 0 0.619-0.175c-0.021-1.239-0.775-0.84-0.775-2.171 0-0.785 0.447-0.907 0.781-1.407 0-2.554 0.014-5.11 0-7.663-0.011-2.171-0.446-1.563 6.1-1.563 0.418 1.564 2.579 5.383 0.16 8.76-0.329 0.459-0.478 0.367-0.63 0.935 2.623 0.611 2.295 4.721 1.408 6.568h-7.663zm2.815-0.469c0 0.696 2.659 0.21 2.659-0.782 0-0.761-0.957-1.251-1.721-1.251-0.61 0-0.397 0.391-0.482 0.926-0.092 0.58-0.456 0.582-0.456 1.107m2.971-8.601h-3.127v5.005h1.876c0.231-0.346 0.294-0.314 0.526-0.727 0.72-1.282 1.403-2.91 0.725-4.278" fill="#7d6f43" fill-rule="evenodd"/>
              </g>
              <g transform="translate(151 51.626)">
                <path d="m0 0c0-4.704 0.193-1.978 0.625-3.597-0.278-0.133-1.018-0.28-1.407-0.312-0.166-0.715-0.481-1.257-0.626-1.877 0.494-0.115 1.071-0.198 1.564-0.314 0-0.803-0.222-1.534-0.318-2.34l-0.759-4.871c-0.146-0.907-0.33-1.455-0.33-2.484h1.407c0.363 0.541 0.563 1.119 0.845 1.814 0.242 0.593 0.664 1.275 0.719 1.939l-0.619 0.176c-6e-3 1.759 0.432 3.667 0.775 5.141 1.023-0.023 1.656-0.84 2.503-1.408 0-2.192-0.272-4.797 0.483-6.867 1.24-3.404 5.118 0.15 1.812 7.13-1.027 2.169-0.731 0.706-0.731 4.586 0.311 0.208 0.433 0.284 0.782 0.469v3.284h-6.256c-0.36 0-0.469-0.109-0.469-0.469m2.346-4.066c0 0.477 0.15 0.63 0.313 0.938h1.094c0.375-0.709 0.47-0.942 0.47-2.033-0.298 0.157-1.877 0.809-1.877 1.095m3.597-6.725h0.312c0.347-1.486 0.555-1.805 0-2.189-0.532 0.39-0.312 0.528-0.312 2.189" fill="#7d6f43" fill-rule="evenodd"/>
              </g>
              <g transform="translate(108.31 48.968)">
                <path d="m0 0c0-0.865 0.352 0.139 0.469-0.938-0.332-0.16-1.876-0.112-1.876-2.034 0-0.358 1.019-0.379 1.407-0.469 0-1.611-1.407-8.569-1.407-9.696h1.564c0.145 0.623 0.474 1.182 0.718 1.783 0.274 0.672 0.628 1.238 0.689 1.97l-0.62 0.176c-6e-3 1.042 0.139 1.743 0.32 2.627l0.456 2.515c1.153-0.026 1.853-1.025 2.659-1.565 0-1.723-0.558-7.975 1.72-7.975 1.59 0 1.72 2.423 1.72 3.753 0 1.253-0.438 2.549-0.758 3.463-1.191 3.396-1.274 0.391-1.274 5.764 0.5 0.335 0.109 0.257 0.781 0.313v3.44h-6.568zm2.502-0.47h1.095c0.375-0.709 0.469-0.942 0.469-2.033-0.415 0.22-1.489 0.835-1.877 0.939 0.015 0.639 0.094 0.68 0.313 1.094m3.285-9.07c0 1.046-0.046 0.54 0.156 1.407 0.379-0.277 0.469-0.363 0.469-1.72 0-0.598 0.048-0.057-0.156-0.469-0.195 0.07-0.469-0.041-0.469 0.782" fill="#7d6f43" fill-rule="evenodd"/>
              </g>
              <g transform="translate(159.76 48.81)">
                <path d="m0 0v-0.312c0.347-0.167 0.938-0.119 0.938-0.469 0-0.623-0.938-1.254-0.938-1.877 0-0.652 0.938-1.264 0.938-1.721v-8.444h2.502c0.326 0.614 0.537 1.376 0.763 2.052 0.565 1.697 0.841 1.857-0.919 1.857v4.535c2.477 0 4.162 0.625 5.258 2.093 1.359 1.823 0.829 3.954-0.253 5.57h-8.289zm3.284-0.469c3.375 0.808 4.258-2.189 0.782-2.189-0.339 1.27-0.782 0.232-0.782 2.189" fill="#7d6f43" fill-rule="evenodd"/>
              </g>
              <g transform="translate(97.202 48.81)">
                <path d="m0 0v-0.312c0.347-0.167 0.938-0.119 0.938-0.469 0-0.815-0.938-0.832-0.938-2.033 0-0.629 0.938-0.928 0.938-1.877v-8.132h2.502c0.148 0.307 1.306 3.242 1.095 3.596-0.485 0.816-1.407-0.176-1.407 0.783 0 4.785-0.578 3.903 2.017 4.238 0.726 0.094 1.4 0.343 2.001 0.658 1.896 0.996 2.081 2.612 2.081 4.33 0 1.072-0.565 1.796-0.938 2.502h-8.289zm3.128-1.094v0.469c1.828 0.967 4.3-0.599 2.479-1.697-0.558-0.337-0.827-0.336-1.541-0.336-0.144 0.272-0.236 0.553-0.439 0.812-0.232 0.299-0.499 0.329-0.499 0.752" fill="#7d6f43" fill-rule="evenodd"/>
              </g>
              <g transform="translate(86.724 46.465)">
                <path d="m0 0h1.095c0.059 2.652 2.658 2.105 2.658 0.47v-11.104h2.034c0.257 1.106 0.938 2.556 0.938 3.753h-0.938c0 1.57-0.277 7.763 0.281 8.319 1.085 1.082 2.119-0.217 2.221-1.438h1.094v5.474h-9.383z" fill="#7d6f43" fill-rule="evenodd"/>
              </g>
              <g transform="translate(115.97 63.512)">
                <path d="m0 0c0.172-0.737 0.563-1.438 0.625-2.189 0.717 0.167 1.22 0.362 1.969 0.534 4.873 1.117 10.49 1.238 15.329 0.029 0.794-0.199 1.346-0.389 2.095-0.563 0.183 0.783 0.552 1.469 0.626 2.345-0.682 0.057-1.672 0.456-2.343 0.629-2.374 0.611-4.189 0.895-6.578 0.929-0.779 0.011-0.743 0.174-1.401 0.174-0.673 0-0.535-0.145-1.245-0.174-2.494-0.099-1.379 0.057-4.268-0.423-1.433-0.239-3.742-0.779-4.809-1.291" fill="#7d6f43" fill-rule="evenodd"/>
              </g>
              <g transform="translate(117.06 59.914)">
                <path d="m0 0c0.838-3.597 1.002-0.938 7.663-0.938 3.425 0 5.145 0.067 8.539-0.688 0.806-0.18 0.799-0.25 1.783-0.25 0.059 0.713 0.322 1.247 0.469 1.876-1.832 0.969-7.009 1.564-9.696 1.564-2.411 0-7.197-0.815-8.758-1.564" fill="#7d6f43" fill-rule="evenodd"/>
              </g>
              <g transform="translate(125.2 68.36)">
                <path d="m 0,0 c -1.685,-0.45 -1.071,-2.815 0.156,-2.815 0.464,0 0.781,0.415 1.095,0.625 C 1.845,-4.412 4.863,-0.623 2.189,0 2.328,1.668 2.267,1.627 1.095,2.189 -0.108,1.552 0,1.585 0,0" fill="#7d6f43" fill-rule="evenodd"/>
              </g>
              <g transform="translate(131.14 68.516)">
                <path d="m0 0c-0.451-0.038-0.646-0.083-0.904-0.347-0.858-0.878-0.433-2.011 0.22-2.383 0.679-0.388 0.804 0.051 1.466 0.228 0.441-1.651 2.803-0.513 1.935 1.308-0.223 0.467-0.227 0.446-0.684 0.569 0.148 0.635 0.363 0.793 0.174 1.411-0.586 1.908-2.844 0.542-2.207-0.786" fill="#7d6f43" fill-rule="evenodd"/>
              </g>
              <g transform="translate(119.41 68.985)">
                <path d="m0 0c0-0.862 0.011-0.468 0.157-1.095-0.78-0.208-0.782-0.689-0.782-1.407 0-0.711 0.333-0.816 0.625-1.251l1.096 0.155c0.015 0.017 0.057 0.06 0.075 0.081l0.393 0.545c2.031-1.36 2.953 1.997 0.782 2.503 0 1.649-0.711 1.72-1.72 1.72-0.292-0.436-0.626-0.541-0.626-1.251" fill="#7d6f43" fill-rule="evenodd"/>
              </g>
              <g transform="translate(136.92 66.796)">
                <path d="m0 0c-2.344 1.24-2.771-2.659-0.625-2.659 0.491 0 1.041 0.822 1.313 1.189 0.452 0.607 0.386 0.271 1.189 1.47l-0.469 0.625c-0.536 0-0.924 0.035-1.408-0.625" fill="#7d6f43" fill-rule="evenodd"/>
              </g>
              <g transform="translate(113.94 66.796)">
                <path d="m0 0c0-0.484 0.78-1.124 1.054-1.448 0.067-0.08 1.315-2.1 2.331-0.843 0.803 0.993 0.26 3.31-1.665 2.291-0.678 0.926-1.72 0.751-1.72 0" fill="#7d6f43" fill-rule="evenodd"/>
              </g>
            </g>
        </g>
    </g>
</svg>